<svg width="152" height="19" viewBox="0 0 152 19" fill="none" xmlns="http://www.w3.org/2000/svg">
<path d="M20.538 2.4L16.416 15H13.284L10.512 6.468L7.65 15H4.536L0.396 2.4H3.42L6.264 11.256L9.234 2.4H11.934L14.814 11.328L17.748 2.4H20.538ZM30.7332 10.194C30.7332 10.23 30.7152 10.482 30.6792 10.95H23.3532C23.4852 11.55 23.7972 12.024 24.2892 12.372C24.7812 12.72 25.3932 12.894 26.1252 12.894C26.6292 12.894 27.0732 12.822 27.4572 12.678C27.8532 12.522 28.2192 12.282 28.5552 11.958L30.0492 13.578C29.1372 14.622 27.8052 15.144 26.0532 15.144C24.9612 15.144 23.9952 14.934 23.1552 14.514C22.3152 14.082 21.6672 13.488 21.2112 12.732C20.7552 11.976 20.5272 11.118 20.5272 10.158C20.5272 9.21 20.7492 8.358 21.1932 7.602C21.6492 6.834 22.2672 6.24 23.0472 5.82C23.8392 5.388 24.7212 5.172 25.6932 5.172C26.6412 5.172 27.4992 5.376 28.2672 5.784C29.0352 6.192 29.6352 6.78 30.0672 7.548C30.5112 8.304 30.7332 9.186 30.7332 10.194ZM25.7112 7.296C25.0752 7.296 24.5412 7.476 24.1092 7.836C23.6772 8.196 23.4132 8.688 23.3172 9.312H28.0872C27.9912 8.7 27.7272 8.214 27.2952 7.854C26.8632 7.482 26.3352 7.296 25.7112 7.296ZM42.4666 1.644V15H39.7846V13.884C39.0886 14.724 38.0806 15.144 36.7606 15.144C35.8486 15.144 35.0206 14.94 34.2766 14.532C33.5446 14.124 32.9686 13.542 32.5486 12.786C32.1286 12.03 31.9186 11.154 31.9186 10.158C31.9186 9.162 32.1286 8.286 32.5486 7.53C32.9686 6.774 33.5446 6.192 34.2766 5.784C35.0206 5.376 35.8486 5.172 36.7606 5.172C37.9966 5.172 38.9626 5.562 39.6586 6.342V1.644H42.4666ZM37.2466 12.84C37.9546 12.84 38.5426 12.6 39.0106 12.12C39.4786 11.628 39.7126 10.974 39.7126 10.158C39.7126 9.342 39.4786 8.694 39.0106 8.214C38.5426 7.722 37.9546 7.476 37.2466 7.476C36.5266 7.476 35.9326 7.722 35.4646 8.214C34.9966 8.694 34.7626 9.342 34.7626 10.158C34.7626 10.974 34.9966 11.628 35.4646 12.12C35.9326 12.6 36.5266 12.84 37.2466 12.84ZM54.9295 1.644V15H52.2475V13.884C51.5515 14.724 50.5435 15.144 49.2235 15.144C48.3115 15.144 47.4835 14.94 46.7395 14.532C46.0075 14.124 45.4315 13.542 45.0115 12.786C44.5915 12.03 44.3815 11.154 44.3815 10.158C44.3815 9.162 44.5915 8.286 45.0115 7.53C45.4315 6.774 46.0075 6.192 46.7395 5.784C47.4835 5.376 48.3115 5.172 49.2235 5.172C50.4595 5.172 51.4255 5.562 52.1215 6.342V1.644H54.9295ZM49.7095 12.84C50.4175 12.84 51.0055 12.6 51.4735 12.12C51.9415 11.628 52.1755 10.974 52.1755 10.158C52.1755 9.342 51.9415 8.694 51.4735 8.214C51.0055 7.722 50.4175 7.476 49.7095 7.476C48.9895 7.476 48.3955 7.722 47.9275 8.214C47.4595 8.694 47.2255 9.342 47.2255 10.158C47.2255 10.974 47.4595 11.628 47.9275 12.12C48.3955 12.6 48.9895 12.84 49.7095 12.84ZM57.5284 5.316H60.3364V15H57.5284V5.316ZM58.9324 3.966C58.4164 3.966 57.9964 3.816 57.6724 3.516C57.3484 3.216 57.1864 2.844 57.1864 2.4C57.1864 1.956 57.3484 1.584 57.6724 1.284C57.9964 0.983999 58.4164 0.833999 58.9324 0.833999C59.4484 0.833999 59.8684 0.977999 60.1924 1.266C60.5164 1.554 60.6784 1.914 60.6784 2.346C60.6784 2.814 60.5164 3.204 60.1924 3.516C59.8684 3.816 59.4484 3.966 58.9324 3.966ZM68.8285 5.172C70.0285 5.172 70.9945 5.532 71.7265 6.252C72.4705 6.972 72.8425 8.04 72.8425 9.456V15H70.0345V9.888C70.0345 9.12 69.8665 8.55 69.5305 8.178C69.1945 7.794 68.7085 7.602 68.0725 7.602C67.3645 7.602 66.8005 7.824 66.3805 8.268C65.9605 8.7 65.7505 9.348 65.7505 10.212V15H62.9425V5.316H65.6245V6.45C65.9965 6.042 66.4585 5.73 67.0105 5.514C67.5625 5.286 68.1685 5.172 68.8285 5.172ZM85.4833 5.316V13.38C85.4833 15.156 85.0213 16.476 84.0973 17.34C83.1733 18.204 81.8233 18.636 80.0473 18.636C79.1113 18.636 78.2233 18.522 77.3833 18.294C76.5433 18.066 75.8473 17.736 75.2953 17.304L76.4113 15.288C76.8193 15.624 77.3353 15.888 77.9593 16.08C78.5833 16.284 79.2073 16.386 79.8313 16.386C80.8033 16.386 81.5173 16.164 81.9733 15.72C82.4413 15.288 82.6753 14.628 82.6753 13.74V13.326C81.9433 14.13 80.9233 14.532 79.6153 14.532C78.7273 14.532 77.9113 14.34 77.1673 13.956C76.4353 13.56 75.8533 13.008 75.4213 12.3C74.9893 11.592 74.7733 10.776 74.7733 9.852C74.7733 8.928 74.9893 8.112 75.4213 7.404C75.8533 6.696 76.4353 6.15 77.1673 5.766C77.9113 5.37 78.7273 5.172 79.6153 5.172C81.0193 5.172 82.0873 5.634 82.8193 6.558V5.316H85.4833ZM80.1733 12.228C80.9173 12.228 81.5233 12.012 81.9913 11.58C82.4713 11.136 82.7113 10.56 82.7113 9.852C82.7113 9.144 82.4713 8.574 81.9913 8.142C81.5233 7.698 80.9173 7.476 80.1733 7.476C79.4293 7.476 78.8173 7.698 78.3373 8.142C77.8573 8.574 77.6173 9.144 77.6173 9.852C77.6173 10.56 77.8573 11.136 78.3373 11.58C78.8173 12.012 79.4293 12.228 80.1733 12.228ZM93.3924 2.4H99.1164C100.484 2.4 101.69 2.664 102.734 3.192C103.79 3.708 104.606 4.44 105.182 5.388C105.77 6.336 106.064 7.44 106.064 8.7C106.064 9.96 105.77 11.064 105.182 12.012C104.606 12.96 103.79 13.698 102.734 14.226C101.69 14.742 100.484 15 99.1164 15H93.3924V2.4ZM98.9724 12.606C100.232 12.606 101.234 12.258 101.978 11.562C102.734 10.854 103.112 9.9 103.112 8.7C103.112 7.5 102.734 6.552 101.978 5.856C101.234 5.148 100.232 4.794 98.9724 4.794H96.3084V12.606H98.9724ZM111.972 5.172C113.472 5.172 114.624 5.532 115.428 6.252C116.232 6.96 116.634 8.034 116.634 9.474V15H114.006V13.794C113.478 14.694 112.494 15.144 111.054 15.144C110.31 15.144 109.662 15.018 109.11 14.766C108.57 14.514 108.156 14.166 107.868 13.722C107.58 13.278 107.436 12.774 107.436 12.21C107.436 11.31 107.772 10.602 108.444 10.086C109.128 9.57 110.178 9.312 111.594 9.312H113.826C113.826 8.7 113.64 8.232 113.268 7.908C112.896 7.572 112.338 7.404 111.594 7.404C111.078 7.404 110.568 7.488 110.064 7.656C109.572 7.812 109.152 8.028 108.804 8.304L107.796 6.342C108.324 5.97 108.954 5.682 109.686 5.478C110.43 5.274 111.192 5.172 111.972 5.172ZM111.756 13.254C112.236 13.254 112.662 13.146 113.034 12.93C113.406 12.702 113.67 12.372 113.826 11.94V10.95H111.9C110.748 10.95 110.172 11.328 110.172 12.084C110.172 12.444 110.31 12.732 110.586 12.948C110.874 13.152 111.264 13.254 111.756 13.254ZM125.061 5.172C126.261 5.172 127.227 5.532 127.959 6.252C128.703 6.972 129.075 8.04 129.075 9.456V15H126.267V9.888C126.267 9.12 126.099 8.55 125.763 8.178C125.427 7.794 124.941 7.602 124.305 7.602C123.597 7.602 123.033 7.824 122.613 8.268C122.193 8.7 121.983 9.348 121.983 10.212V15H119.175V5.316H121.857V6.45C122.229 6.042 122.691 5.73 123.243 5.514C123.795 5.286 124.401 5.172 125.061 5.172ZM136.406 15.144C135.374 15.144 134.444 14.934 133.616 14.514C132.8 14.082 132.158 13.488 131.69 12.732C131.234 11.976 131.006 11.118 131.006 10.158C131.006 9.198 131.234 8.34 131.69 7.584C132.158 6.828 132.8 6.24 133.616 5.82C134.444 5.388 135.374 5.172 136.406 5.172C137.426 5.172 138.314 5.388 139.07 5.82C139.838 6.24 140.396 6.846 140.744 7.638L138.566 8.808C138.062 7.92 137.336 7.476 136.388 7.476C135.656 7.476 135.05 7.716 134.57 8.196C134.09 8.676 133.85 9.33 133.85 10.158C133.85 10.986 134.09 11.64 134.57 12.12C135.05 12.6 135.656 12.84 136.388 12.84C137.348 12.84 138.074 12.396 138.566 11.508L140.744 12.696C140.396 13.464 139.838 14.064 139.07 14.496C138.314 14.928 137.426 15.144 136.406 15.144ZM151.723 10.194C151.723 10.23 151.705 10.482 151.669 10.95H144.343C144.475 11.55 144.787 12.024 145.279 12.372C145.771 12.72 146.383 12.894 147.115 12.894C147.619 12.894 148.063 12.822 148.447 12.678C148.843 12.522 149.209 12.282 149.545 11.958L151.039 13.578C150.127 14.622 148.795 15.144 147.043 15.144C145.951 15.144 144.985 14.934 144.145 14.514C143.305 14.082 142.657 13.488 142.201 12.732C141.745 11.976 141.517 11.118 141.517 10.158C141.517 9.21 141.739 8.358 142.183 7.602C142.639 6.834 143.257 6.24 144.037 5.82C144.829 5.388 145.711 5.172 146.683 5.172C147.631 5.172 148.489 5.376 149.257 5.784C150.025 6.192 150.625 6.78 151.057 7.548C151.501 8.304 151.723 9.186 151.723 10.194ZM146.701 7.296C146.065 7.296 145.531 7.476 145.099 7.836C144.667 8.196 144.403 8.688 144.307 9.312H149.077C148.981 8.7 148.717 8.214 148.285 7.854C147.853 7.482 147.325 7.296 146.701 7.296Z" fill="black"/>
</svg>
