<svg width="135" height="667" viewBox="0 0 135 667" fill="none" xmlns="http://www.w3.org/2000/svg">
<path d="M2.99999 125.5L82.75 125L18.75 87L18.75 61L80 23L3 23L3 -30.75L178 -30.75L178 17.75L84.75 74.75L178 130.25L178 178.75L2.99999 179.25L2.99999 125.5ZM71.5 351.525C70.6667 351.525 66.25 351.275 58.25 350.775L58.25 255.775C53.0833 257.775 49.0833 261.109 46.25 265.775C43.5833 270.442 42.25 276.275 42.25 283.275C42.25 289.275 43 294.275 44.5 298.275C46 302.442 48.5833 306.942 52.25 311.775L22.5 341.275C7.83332 327.942 0.499984 308.025 0.499986 281.525C0.499986 265.025 3.49999 250.525 9.49999 238.025C15.6667 225.525 24.1667 215.859 35 209.025C45.8333 202.192 58 198.775 71.5 198.775C85.1667 198.775 97.3333 202.109 108 208.775C118.833 215.609 127.25 224.859 133.25 236.525C139.25 248.359 142.25 261.609 142.25 276.275C142.25 290.109 139.5 302.692 134 314.025C128.5 325.525 120.417 334.609 109.75 341.275C99.0833 348.109 86.3333 351.525 71.5 351.525ZM103.75 276.775C103.75 270.942 102.167 266.109 99 262.275C95.8333 258.442 91.3333 255.942 85.5 254.775L85.5 298.775C91.1667 297.609 95.5833 295.109 98.75 291.275C102.083 287.442 103.75 282.609 103.75 276.775ZM142.25 464.355C142.25 481.189 137.167 494.689 127 504.855C116.833 515.189 101.5 520.355 81 520.355L2.99998 520.355L2.99998 463.855L71.25 463.855C86.9166 463.855 94.75 458.272 94.75 447.105C94.75 440.772 92.5 435.605 88 431.605C83.6666 427.772 76.75 425.855 67.25 425.855L2.99998 425.855L2.99998 369.355L139.75 369.355L139.75 423.105L126.25 423.105C131.583 428.439 135.583 434.605 138.25 441.605C140.917 448.605 142.25 456.189 142.25 464.355ZM139.75 694.393L2.99997 694.393L2.99997 640.643L16 640.643C10.8333 635.643 6.91664 629.809 4.24997 623.143C1.74997 616.476 0.499971 609.393 0.499972 601.893C0.499972 584.559 5.74997 570.643 16.25 560.143C26.9166 549.643 42.9166 544.393 64.25 544.393L139.75 544.393L139.75 600.893L74 600.893C64.6666 600.893 58 602.393 54 605.393C50 608.393 48 612.809 48 618.643C48 624.143 50.1666 628.726 54.5 632.393C59 636.059 66 637.893 75.5 637.893L139.75 637.893L139.75 694.393Z" fill="#FEF2F6"/>
</svg>
